<svg width="41" height="41" viewBox="0 0 41 41" fill="none" xmlns="http://www.w3.org/2000/svg">
<path d="M37.5833 23.0625C37.5811 22.5344 37.4158 22.0199 37.11 21.5893C36.8042 21.1588 36.3729 20.8332 35.875 20.6572V12.8125C35.8727 10.7743 35.0621 8.82031 33.6209 7.37911C32.1797 5.93792 30.2256 5.12726 28.1875 5.125H12.8125C10.7743 5.12726 8.82029 5.93792 7.37909 7.37911C5.9379 8.82031 5.12724 10.7743 5.12498 12.8125V20.6572C4.56646 20.8501 4.09234 21.2311 3.78371 21.7351C3.47509 22.239 3.35114 22.8345 3.43307 23.4197C3.515 24.0049 3.79771 24.5434 4.23285 24.9432C4.668 25.343 5.22853 25.5792 5.81856 25.6113L8.5741 35.2583C8.62563 35.4363 8.73365 35.5928 8.88187 35.704C9.0301 35.8152 9.21048 35.8753 9.39581 35.875H17.577C17.7471 35.8748 17.9133 35.8237 18.0542 35.7285C18.1951 35.6332 18.3044 35.498 18.368 35.3403L20.2215 30.75H20.7596L22.4577 35.3181C22.5184 35.4816 22.6278 35.6226 22.771 35.7222C22.9142 35.8218 23.0845 35.8751 23.2589 35.875H31.6041C31.7899 35.8751 31.9706 35.8145 32.1189 35.7026C32.2672 35.5907 32.375 35.4335 32.4259 35.2549L35.1814 25.6079C35.8299 25.5672 36.4387 25.2817 36.8846 24.8091C37.3305 24.3366 37.5803 23.7122 37.5833 23.0625ZM6.83331 12.8125C6.83331 11.2267 7.46326 9.7059 8.58457 8.58459C9.70588 7.46328 11.2267 6.83333 12.8125 6.83333H28.1875C29.7733 6.83333 31.2941 7.46328 32.4154 8.58459C33.5367 9.7059 34.1666 11.2267 34.1666 12.8125V20.5H34.1393C34.1108 18.5953 33.5265 16.7404 32.4583 15.1632V12.8125C32.4583 11.6798 32.0084 10.5935 31.2074 9.79256C30.4065 8.99163 29.3202 8.54167 28.1875 8.54167H12.8125C11.6798 8.54167 10.5935 8.99163 9.79254 9.79256C8.99161 10.5935 8.54165 11.6798 8.54165 12.8125V15.1632C7.47345 16.7404 6.88919 18.5953 6.86065 20.5H6.83331V12.8125ZM12.8125 14.3995C15.0846 14.3995 16.9313 17.1073 17.0594 20.5H8.56556C8.69369 17.1073 10.5404 14.3995 12.8125 14.3995ZM18.7643 20.5C18.6208 16.166 16.0173 12.6912 12.8125 12.6912C11.8962 12.7064 11.0048 12.9916 10.25 13.5112V12.8125C10.25 12.1329 10.52 11.4811 11.0005 11.0005C11.4811 10.52 12.1329 10.25 12.8125 10.25H28.1875C28.8671 10.25 29.5189 10.52 29.9994 11.0005C30.48 11.4811 30.75 12.1329 30.75 12.8125V13.5112C29.9951 12.9916 29.1037 12.7064 28.1875 12.6912C24.9826 12.6912 22.3791 16.166 22.2356 20.5H18.7643ZM28.1875 14.3995C30.4596 14.3995 32.3063 17.1073 32.4344 20.5H23.9406C24.0687 17.1073 25.9154 14.3995 28.1875 14.3995ZM30.9601 34.1667H23.8534L22.1554 29.5986C22.0947 29.4351 21.9853 29.294 21.8421 29.1945C21.6989 29.0949 21.5286 29.0416 21.3541 29.0417H19.6458C19.4754 29.0416 19.3089 29.0924 19.1677 29.1877C19.0264 29.283 18.9169 29.4184 18.8531 29.5764L16.9996 34.1667H10.0399L7.60035 25.625H33.3962L30.9601 34.1667ZM35.0208 23.9167H5.97915C5.75261 23.9167 5.53535 23.8267 5.37516 23.6665C5.21497 23.5063 5.12498 23.289 5.12498 23.0625C5.12498 22.836 5.21497 22.6187 5.37516 22.4585C5.53535 22.2983 5.75261 22.2083 5.97915 22.2083H35.0208C35.2474 22.2083 35.4646 22.2983 35.6248 22.4585C35.785 22.6187 35.875 22.836 35.875 23.0625C35.875 23.289 35.785 23.5063 35.6248 23.6665C35.4646 23.8267 35.2474 23.9167 35.0208 23.9167Z" fill="#FFC120"/>
</svg>
