<svg width="41" height="42" viewBox="0 0 41 42" fill="none" xmlns="http://www.w3.org/2000/svg">
<path d="M37.5833 20.5627C37.5798 19.7954 37.5348 19.0289 37.4484 18.2667C37.4224 18.0539 37.3211 17.8583 37.1636 17.717C37.0062 17.5757 36.8035 17.4986 36.5942 17.5002H35.875V13.1252C35.8705 12.2137 35.5882 11.3264 35.0676 10.5872C34.5469 9.84802 33.8139 9.29389 32.9708 9.00222L35.0208 5.71922C35.1175 5.56404 35.1639 5.38159 35.1535 5.19783C35.1431 5.01407 35.0763 4.83836 34.9628 4.69568C34.8493 4.55301 34.6947 4.45066 34.5211 4.40318C34.3475 4.35569 34.1637 4.36551 33.9958 4.43122L30.1572 5.91697L28.0765 2.19122C27.9954 2.06522 27.885 1.96181 27.7554 1.89026C27.6257 1.81871 27.4806 1.78125 27.3333 1.78125C27.186 1.78125 27.041 1.81871 26.9113 1.89026C26.7816 1.96181 26.6713 2.06522 26.5902 2.19122L24.5163 5.91697L20.6708 4.43122C20.503 4.36551 20.3192 4.35569 20.1456 4.40318C19.972 4.45066 19.8174 4.55301 19.7039 4.69568C19.5903 4.83836 19.5236 5.01407 19.5132 5.19783C19.5028 5.38159 19.5492 5.56404 19.6458 5.71922L21.6958 9.00222C20.8759 9.28636 20.16 9.81981 19.6435 10.5314C19.1271 11.243 18.8347 12.099 18.8053 12.9852V13.0307C18.8053 13.0622 18.7968 13.092 18.7968 13.1252V17.5002H6.96146C6.75213 17.4986 6.54949 17.5757 6.39203 17.717C6.23457 17.8583 6.13324 18.0539 6.10729 18.2667C6.02318 19.029 5.9804 19.7955 5.97916 20.5627C5.98734 21.5317 6.07938 22.4979 6.25421 23.4502C5.37429 23.8067 4.62647 24.4382 4.11706 25.2551C3.60764 26.0719 3.36257 27.0325 3.41666 28.0002C3.41666 30.7705 4.62275 36.178 7.53033 36.7345C7.63391 36.7551 7.73915 36.7656 7.84466 36.766C8.34957 36.728 8.83601 36.5554 9.25575 36.2655C9.55137 36.0547 9.89259 35.9208 10.25 35.8752C10.6017 35.9328 10.9379 36.0645 11.2374 36.262C11.7407 36.608 12.3407 36.7758 12.9457 36.7397C13.395 36.6521 13.8228 36.4738 14.204 36.2151C14.5853 35.9564 14.9125 35.6225 15.1666 35.233C17.2387 36.222 19.4953 36.7396 21.7812 36.7502C22.1229 36.7502 22.4646 36.7187 22.8062 36.6977C22.8886 36.7282 22.975 36.7459 23.0625 36.7502H31.6042C32.7369 36.7502 33.8232 36.2893 34.6241 35.4688C35.425 34.6483 35.875 33.5355 35.875 32.3752V27.8445C36.9959 25.5888 37.5813 23.0939 37.5833 20.5627ZM34.1667 13.1252V15.0275L27.2462 10.5002H31.6042C32.2838 10.5002 32.9356 10.7768 33.4161 11.2691C33.8967 11.7613 34.1667 12.429 34.1667 13.1252ZM24.6 7.81922C24.7905 7.89331 25.0005 7.89523 25.1922 7.82463C25.3839 7.75403 25.5447 7.61557 25.6455 7.43422L27.3333 4.39097L29.028 7.43422C29.1288 7.61557 29.2896 7.75403 29.4813 7.82463C29.673 7.89523 29.883 7.89331 30.0735 7.81922L32.197 7.00022L31.1087 8.75022H23.5579L22.4697 7.00022L24.6 7.81922ZM23.0625 10.5002H24.0704L34.1667 17.1047V17.5002H28.4232L20.5461 12.658C20.6529 12.0535 20.9631 11.5066 21.4229 11.1123C21.8827 10.7181 22.4629 10.5015 23.0625 10.5002ZM20.5 14.6705L25.1125 17.5002H20.5V14.6705ZM12.6946 35.009C12.4624 34.941 12.24 34.8415 12.0335 34.7132C11.4953 34.3698 10.8827 34.1678 10.25 34.1252C9.59727 34.1575 8.96516 34.3698 8.42037 34.7395C8.24178 34.8567 8.04875 34.9491 7.84637 35.0142C6.2935 34.7167 5.125 30.5535 5.125 28.0002C5.125 26.6195 5.61358 24.8502 9.24721 24.558C9.24826 25.1728 9.30546 25.7863 9.41804 26.3902C9.45997 26.5844 9.56522 26.7581 9.71645 26.8828C9.86768 27.0075 10.0559 27.0757 10.25 27.0762C10.3109 27.0761 10.3717 27.0691 10.4311 27.0552C10.652 27.0061 10.8449 26.8693 10.9675 26.6748C11.0902 26.4803 11.1326 26.2439 11.0854 26.0175C11.0022 25.5297 10.9599 25.0356 10.959 24.5405C14.8625 24.7487 15.375 26.5845 15.375 28.0002C15.375 30.7442 14.35 34.7395 12.6946 35.009ZM15.9985 33.7035C16.2202 33.1603 16.4023 32.6011 16.5435 32.0305C18.322 32.8949 20.2766 33.3107 22.2441 33.243C24.2115 33.1753 26.1345 32.6262 27.8524 31.6414C29.5702 30.6567 31.033 29.265 32.1185 27.5827C33.2039 25.9004 33.8804 23.9764 34.0915 21.9715C34.1046 21.857 34.0954 21.741 34.0646 21.6301C34.0338 21.5192 33.9819 21.4157 33.9119 21.3254C33.8419 21.2352 33.7551 21.16 33.6567 21.1042C33.5582 21.0484 33.45 21.013 33.3381 21.0002C33.2262 20.9854 33.1125 20.9938 33.0038 21.0249C32.8951 21.0561 32.7936 21.1093 32.7055 21.1815C32.6173 21.2537 32.5442 21.3434 32.4906 21.4451C32.437 21.5468 32.404 21.6586 32.3934 21.7737C32.2066 23.5375 31.6027 25.2281 30.634 26.6987C29.6652 28.1694 28.3609 29.3758 26.8341 30.2133C25.3073 31.0508 23.6041 31.4942 21.8722 31.505C20.1404 31.5158 18.432 31.0937 16.8954 30.2752C17.0108 29.5224 17.0736 28.7622 17.0833 28.0002C17.0833 25.7357 16.0173 23.0617 11.1247 22.7782C11.1926 22.4205 11.2897 22.0693 11.4151 21.7282C11.4923 21.513 11.484 21.2753 11.3919 21.0663C11.2998 20.8573 11.1313 20.6937 10.9226 20.6107C10.714 20.5277 10.4818 20.5319 10.2762 20.6224C10.0705 20.7129 9.90775 20.8825 9.82291 21.0947C9.62195 21.6398 9.47598 22.2045 9.38729 22.78C8.88988 22.8059 8.39459 22.8644 7.90446 22.955C7.7673 22.1651 7.69473 21.3649 7.6875 20.5627C7.6875 20.176 7.708 19.6965 7.73704 19.2502H35.8255C35.8545 19.6965 35.875 20.176 35.875 20.5627C35.8828 22.9761 35.298 25.3527 34.1744 27.4739C33.0507 29.5951 31.4243 31.3927 29.4449 32.7014C27.4654 34.0101 25.1964 34.7877 22.8467 34.9628C20.497 35.1379 18.1421 34.7049 15.9985 33.7035ZM34.1667 32.3752C34.1667 33.0714 33.8967 33.7391 33.4161 34.2314C32.9356 34.7237 32.2838 35.0002 31.6042 35.0002H28.8896C30.9399 33.9371 32.7404 32.4306 34.1667 30.585V32.3752Z" fill="#FE6E4C"/>
<path d="M28.1875 21C27.961 21 27.7437 21.0922 27.5836 21.2563C27.4234 21.4204 27.3334 21.6429 27.3334 21.875V23.625C27.3334 23.8571 27.4234 24.0796 27.5836 24.2437C27.7437 24.4078 27.961 24.5 28.1875 24.5C28.4141 24.5 28.6313 24.4078 28.7915 24.2437C28.9517 24.0796 29.0417 23.8571 29.0417 23.625V21.875C29.0417 21.6429 28.9517 21.4204 28.7915 21.2563C28.6313 21.0922 28.4141 21 28.1875 21Z" fill="#FE6E4C"/>
<path d="M17.9375 21C17.711 21 17.4937 21.0922 17.3336 21.2563C17.1734 21.4204 17.0834 21.6429 17.0834 21.875V23.625C17.0834 23.8571 17.1734 24.0796 17.3336 24.2437C17.4937 24.4078 17.711 24.5 17.9375 24.5C18.1641 24.5 18.3813 24.4078 18.5415 24.2437C18.7017 24.0796 18.7917 23.8571 18.7917 23.625V21.875C18.7917 21.6429 18.7017 21.4204 18.5415 21.2563C18.3813 21.0922 18.1641 21 17.9375 21Z" fill="#FE6E4C"/>
<path d="M23.0625 22.75C22.836 22.75 22.6187 22.8422 22.4586 23.0063C22.2984 23.1704 22.2084 23.3929 22.2084 23.625V25.375C22.2084 25.6071 22.2984 25.8296 22.4586 25.9937C22.6187 26.1578 22.836 26.25 23.0625 26.25C23.2891 26.25 23.5063 26.1578 23.6665 25.9937C23.8267 25.8296 23.9167 25.6071 23.9167 25.375V23.625C23.9167 23.3929 23.8267 23.1704 23.6665 23.0063C23.5063 22.8422 23.2891 22.75 23.0625 22.75Z" fill="#FE6E4C"/>
</svg>
