<svg width="41" height="41" viewBox="0 0 41 41" fill="none" xmlns="http://www.w3.org/2000/svg">
<path d="M33.784 9.18205C30.7348 7.17285 27.1454 6.14127 23.4947 6.22493C14.2356 6.22493 4.27087 12.0025 4.27087 24.6886V28.1053C4.27087 34.5457 9.06275 37.5472 12.3 37.5472C14.1127 37.4508 15.8552 36.8149 17.3037 35.721C18.474 34.8199 19.8816 34.2797 21.3542 34.1664C21.795 34.1664 22.3792 34.2211 23.0625 34.2843C26.1563 34.5696 31.3326 35.0428 34.85 31.8363C37.2417 29.6616 38.4375 26.1338 38.4375 21.3539V17.9373C38.4537 16.2056 38.0363 14.4974 37.2236 12.9682C36.4108 11.439 35.2284 10.1375 33.784 9.18205ZM23.4947 7.93326C29.8685 7.93326 36.7292 11.0646 36.7292 17.9373C36.7292 22.2166 35.7042 25.319 33.6935 27.1623C30.7364 29.8631 26.2127 29.4463 23.2146 29.1713C22.4715 29.1029 21.836 29.0466 21.3542 29.0466C19.5595 29.1456 17.8349 29.7766 16.4 30.8591C15.2154 31.7703 13.7903 32.3154 12.3 32.4273C9.75121 32.4273 5.97921 29.9691 5.97921 24.6937C5.97921 13.1761 15.059 7.93326 23.4947 7.93326ZM33.6935 30.5789C30.7364 33.2798 26.2127 32.863 23.2146 32.5879C22.4715 32.5196 21.836 32.4632 21.3542 32.4632C19.5595 32.5623 17.8349 33.1932 16.4 34.2758C15.2154 35.1869 13.7903 35.732 12.3 35.844C10.9876 35.7393 9.7363 35.2452 8.70639 34.4249C7.67648 33.6047 6.91485 32.4958 6.51904 31.2401C7.2269 32.1004 8.10687 32.8033 9.10245 33.3034C10.098 33.8036 11.1872 34.09 12.3 34.1442C14.1127 34.0478 15.8552 33.4119 17.3037 32.318C18.4724 31.412 19.8802 30.867 21.3542 30.7498C21.795 30.7498 22.3792 30.8044 23.0625 30.8676C26.1563 31.1529 31.3326 31.6261 34.85 28.4196C35.1716 28.1244 35.4703 27.8051 35.7435 27.4646C35.3091 28.6467 34.6075 29.7125 33.6935 30.5789Z" fill="#9B81E5"/>
<path d="M12.3001 30.7137C13.4058 30.5813 14.4529 30.1436 15.3238 29.4495C17.0789 28.1603 19.1784 27.4234 21.3542 27.3329C21.8872 27.3329 22.5877 27.3909 23.435 27.4695C24.3951 27.5567 25.485 27.6557 26.6142 27.6557C28.5711 27.8046 30.5192 27.271 32.127 26.1456C33.9207 24.6781 34.8313 21.9174 34.8313 17.9456C34.8313 12.2466 28.9546 9.6499 23.4948 9.6499C22.4833 9.65752 21.4742 9.74894 20.4779 9.92324H20.4454C14.7925 10.897 7.8772 14.7185 7.8772 24.6918C7.8772 29.1967 10.9146 30.7137 12.3001 30.7137ZM14.4201 14.2163C13.7556 16.0186 12.898 18.3692 12.5649 19.3772C12.5259 19.4845 12.5089 19.5986 12.5148 19.7127C12.5208 19.8267 12.5495 19.9384 12.5994 20.0412C12.6492 20.1439 12.7192 20.2356 12.8051 20.3109C12.891 20.3861 12.9911 20.4434 13.0995 20.4793C13.208 20.5151 13.3225 20.5289 13.4363 20.5198C13.5502 20.5106 13.661 20.4787 13.7623 20.426C13.8636 20.3732 13.9533 20.3007 14.0261 20.2127C14.0989 20.1247 14.1533 20.023 14.1861 19.9136C14.661 18.4752 16.2924 14.0762 16.7486 12.8291C17.5334 12.4663 18.3471 12.1698 19.1812 11.9425L17.1312 17.6483C17.0548 17.8611 17.0659 18.0954 17.1619 18.3C17.258 18.5046 17.4313 18.6628 17.6437 18.7399C17.7377 18.7749 17.8373 18.7923 17.9376 18.7912C18.1133 18.791 18.2847 18.7366 18.4284 18.6354C18.5721 18.5342 18.6811 18.3911 18.7405 18.2257L21.1509 11.5359C21.9266 11.416 22.71 11.3538 23.4948 11.3497C28.1312 11.3497 33.1229 13.4117 33.1229 17.937C33.1229 21.3793 32.4242 23.6958 31.0456 24.8216C29.7386 25.6878 28.1762 26.0847 26.6142 25.9474C25.5602 25.9474 24.5147 25.8517 23.5631 25.7663C22.6816 25.6843 21.9265 25.6245 21.3542 25.6245C18.8582 25.7093 16.4441 26.536 14.4201 27.9991C13.7995 28.492 13.0743 28.8362 12.3001 29.0053C12.2727 29.0053 9.58553 28.6637 9.58553 24.6884C9.47189 22.6804 9.85334 20.6752 10.6963 18.8492C11.5394 17.0231 12.8181 15.4322 14.4201 14.2163Z" fill="#9B81E5"/>
<path d="M27.3334 22.2083C28.0092 22.2083 28.6697 22.008 29.2316 21.6325C29.7935 21.2571 30.2314 20.7235 30.49 20.0992C30.7486 19.4749 30.8163 18.7879 30.6844 18.1251C30.5526 17.4623 30.2272 16.8536 29.7494 16.3757C29.2715 15.8979 28.6627 15.5725 28 15.4407C27.3372 15.3088 26.6502 15.3765 26.0259 15.6351C25.4016 15.8937 24.868 16.3316 24.4926 16.8935C24.1171 17.4553 23.9167 18.1159 23.9167 18.7917C23.9167 19.6978 24.2767 20.5669 24.9175 21.2076C25.5582 21.8484 26.4273 22.2083 27.3334 22.2083ZM27.3334 17.0833C27.6713 17.0833 28.0016 17.1835 28.2825 17.3712C28.5634 17.559 28.7824 17.8258 28.9117 18.1379C29.041 18.4501 29.0748 18.7936 29.0089 19.1249C28.943 19.4563 28.7803 19.7607 28.5414 19.9996C28.3025 20.2386 27.9981 20.4013 27.6667 20.4672C27.3353 20.5331 26.9918 20.4993 26.6797 20.37C26.3675 20.2407 26.1007 20.0217 25.913 19.7408C25.7253 19.4598 25.6251 19.1295 25.6251 18.7917C25.6251 18.3386 25.8051 17.9041 26.1254 17.5837C26.4458 17.2633 26.8803 17.0833 27.3334 17.0833Z" fill="#9B81E5"/>
</svg>
