<svg width="34" height="34" viewBox="0 0 34 34" fill="none" xmlns="http://www.w3.org/2000/svg">
<path d="M33.3988 11.0494C32.97 10.0159 31.6205 9.39749 29.7874 9.39749C29.433 9.40008 29.0789 9.42061 28.7265 9.45899C29.6759 8.7682 30.3707 7.78336 30.7031 6.65732C30.7859 6.20402 30.7509 5.73703 30.6013 5.30117C30.4517 4.86531 30.1926 4.4752 29.8489 4.16828C29.538 3.82351 29.144 3.56403 28.7044 3.41452C28.2648 3.26501 27.7943 3.23045 27.3377 3.31412C26.212 3.64361 25.2262 4.33463 24.5326 5.28041C24.5704 4.9263 24.5903 4.57052 24.5924 4.21441C24.5924 2.38137 23.9757 1.03178 22.9404 0.604698C22.5545 0.46332 22.1344 0.444038 21.7371 0.549466C21.3399 0.654895 20.9846 0.879933 20.7196 1.19407C20.4377 1.47424 19.6314 2.29082 19.2555 6.61461C18.4139 6.37533 17.5184 6.40694 16.6958 6.70496C15.8731 7.00299 15.1651 7.55231 14.6721 8.27512L0.918291 27.9209C0.572736 28.4144 0.412096 29.0139 0.464581 29.614C0.517067 30.2142 0.779323 30.7766 1.20529 31.2027L2.80258 32.7999C3.22859 33.2259 3.79106 33.4882 4.39121 33.5407C4.99136 33.5931 5.59081 33.4325 6.08429 33.0869L25.7301 19.3332C26.454 18.8395 27.0036 18.1301 27.3008 17.306C27.598 16.4818 27.6277 15.5849 27.3855 14.7429C30.2589 14.4934 32.08 14.0014 32.8043 13.2771C33.1203 13.0119 33.3469 12.6558 33.4533 12.2572C33.5597 11.8586 33.5407 11.4369 33.3988 11.0494ZM27.6657 4.9917C27.8491 4.9604 28.0376 4.97964 28.211 5.04735C28.3844 5.11507 28.536 5.22871 28.6497 5.37607C28.7934 5.48747 28.9042 5.63573 28.9704 5.80508C29.0365 5.97443 29.0556 6.15855 29.0255 6.33787C28.7607 7.73016 25.9505 9.48291 23.9347 10.4379L23.5657 10.0689C24.5172 8.05474 26.2682 5.25649 27.6657 4.9917ZM21.9359 2.40016C22.1153 2.22932 22.2502 2.1627 22.2981 2.18149C22.4843 2.25836 22.8926 2.87678 22.8926 4.2127C22.8169 5.71113 22.5634 7.19525 22.1375 8.63387L21.1996 7.69599C21.1142 7.61057 21.0134 7.55078 20.9212 7.47391C21.1518 4.07091 21.6609 2.6752 21.9359 2.40016ZM5.10542 31.6793C4.94082 31.7948 4.74077 31.8485 4.54046 31.831C4.34016 31.8135 4.15245 31.7259 4.01037 31.5836L2.41308 29.9863C2.27219 29.844 2.18577 29.6568 2.16891 29.4572C2.15205 29.2577 2.20582 29.0586 2.32083 28.8947L4.89529 25.2184L8.78175 29.1168L5.10542 31.6793ZM24.7512 17.9238L21.5686 20.1446L18.5944 17.1687C18.4343 17.0083 18.2169 16.9181 17.9903 16.918C17.7636 16.9178 17.5462 17.0077 17.3858 17.1678C17.2254 17.328 17.1352 17.5453 17.135 17.772C17.1349 17.9987 17.2248 18.2161 17.3849 18.3765L20.149 21.1406L15.8782 24.125L12.8271 21.0739C12.666 20.9184 12.4502 20.8323 12.2263 20.8342C12.0023 20.8362 11.7881 20.926 11.6297 21.0844C11.4713 21.2427 11.3815 21.457 11.3795 21.6809C11.3776 21.9049 11.4637 22.1206 11.6193 22.2817L14.4654 25.1295L10.1945 28.114L5.88612 23.797L12.8493 13.8494L14.8429 15.843C14.9217 15.9246 15.016 15.9897 15.1202 16.0345C15.2244 16.0792 15.3365 16.1028 15.4499 16.1038C15.5633 16.1048 15.6758 16.0831 15.7808 16.0402C15.8857 15.9972 15.9811 15.9338 16.0613 15.8536C16.1415 15.7734 16.2049 15.6781 16.2479 15.5731C16.2908 15.4681 16.3124 15.3556 16.3114 15.2422C16.3105 15.1288 16.2869 15.0167 16.2421 14.9125C16.1974 14.8083 16.1323 14.714 16.0507 14.6352L13.8452 12.4281L16.0661 9.24545C16.2806 8.93814 16.5601 8.68191 16.885 8.49499C17.2098 8.30808 17.5718 8.19509 17.9452 8.16407C18.0204 8.16407 18.0956 8.15382 18.169 8.15382C18.8482 8.15397 19.4995 8.42371 19.9799 8.90378L25.0929 14.0168C25.1512 14.0811 25.2054 14.149 25.2552 14.2201C25.3033 14.3847 25.4012 14.5303 25.5354 14.6369C25.8339 15.1856 25.9189 15.8253 25.7738 16.4329C25.6287 17.0404 25.2638 17.5727 24.7495 17.9272L24.7512 17.9238ZM31.5982 12.0608C31.3198 12.3375 29.9207 12.8466 26.5262 13.0858C26.4493 12.9935 26.3878 12.8927 26.3024 12.8073L25.3645 11.8694C26.8025 11.4391 28.2868 11.1822 29.7857 11.1041C31.1216 11.1041 31.74 11.5141 31.8186 11.7003C31.8374 11.7447 31.7793 11.8831 31.6 12.0642L31.5982 12.0608Z" fill="#3A9B7A"/>
</svg>
